#N canvas 110 89 686 662 10;
#X msg -96 300 connect localhost 6448;
#X obj -95 416 packOSC;
#X obj -95 449 udpsend;
#X obj -96 271 loadbang;
#X obj 24 339 bng 15 250 50 0 empty empty empty 17 7 0 10 -262144 -1
-1;
#X obj 74 355 pack f f f;
#X msg -93 384 sendtyped /wek/inputs fff \$1 \$2 \$3;
#X text -229 -8 This patch sends 3 inputs to wekinator on port 6448
\, using message /wek/inputs;
#X obj -115 60 bng 15 250 50 0 empty empty empty 0 -6 0 8 -262144 -1
-1;
#X obj -194 43 TuioClient;
#X obj -194 91 route addObject removeObject updateObject;
#X obj -196 138 unpack \$1 \$2;
#X obj -102 138 unpack \$1 \$2;
#X obj 107 188 * 480;
#X obj 154 188 * 360;
#X obj 154 157 / 6.28;
#X floatatom 53 219 5 0 0 0 - - -, f 5;
#X floatatom 107 219 5 0 0 0 - - -, f 5;
#X floatatom 154 219 5 0 0 0 - - -, f 5;
#X text 103 243 y-axis;
#X text 48 242 x-axis;
#X text 156 243 angle;
#X obj 53 188 * 640;
#X obj -8 140 unpack \$1 \$2 \$3 \$4 \$5;
#X obj -194 169 print addObject;
#X obj -93 170 print removeObject;
#X connect 0 0 2 0;
#X connect 1 0 2 0;
#X connect 3 0 0 0;
#X connect 4 0 5 0;
#X connect 5 0 6 0;
#X connect 6 0 1 0;
#X connect 9 0 10 0;
#X connect 9 1 8 0;
#X connect 10 0 11 0;
#X connect 10 1 12 0;
#X connect 10 2 23 0;
#X connect 11 1 24 0;
#X connect 12 1 25 0;
#X connect 13 0 17 0;
#X connect 14 0 18 0;
#X connect 15 0 14 0;
#X connect 16 0 5 0;
#X connect 17 0 5 1;
#X connect 18 0 5 2;
#X connect 22 0 16 0;
#X connect 23 2 22 0;
#X connect 23 3 13 0;
#X connect 23 4 15 0;
